<svg width="640" height="150" viewBox="0 0 640 150" xmlns="http://www.w3.org/2000/svg">
  <rect width="640" height="150" fill="#1F2933"/>
  <g transform="translate(30,28)">
  <polygon points="18,58 34,20 50,58" fill="#2F4858" opacity="0.8"/>
  <polygon points="28,58 48,6 68,58" fill="#F7F8FA"/>
  <polygon points="40,58 54,26 68,58" fill="#C97A2B" opacity="0.9"/>
  <polygon points="48,6 42,22 54,22" fill="#F7F8FA" opacity="0.92"/>
  <polygon points="34,20 29,32 39,32" fill="#F7F8FA" opacity="0.85"/>
  <path d="M2,62 Q18,53 34,60 Q50,67 66,58" stroke="#D6C3A1" stroke-width="2" fill="none" stroke-linecap="round"/>
  <line x1="2" y1="65" x2="74" y2="65" stroke="#D6C3A1" stroke-width="1.5" stroke-linecap="round"/></g>
  <text x="122" y="72" font-family="Georgia,'Times New Roman',serif" font-size="36" font-weight="700" fill="#C97A2B" letter-spacing="-0.5">Coastal Peak</text>
  <text x="122" y="100" font-family="Arial,sans-serif" font-size="13" font-weight="400" fill="#F7F8FA" letter-spacing="4">RENOVATIONS</text>
  <line x1="122" y1="109" x2="580" y2="109" stroke="#D6C3A1" stroke-width="0.75" opacity="0.35"/>
  <text x="122" y="124" font-family="Arial,sans-serif" font-size="10" fill="#D6C3A1" letter-spacing="2">HOME IMPROVEMENT &amp; REMODELING</text>
</svg>